<?xml version="1.0" encoding="iso-8859-1"?>
<!-- Generator: Adobe Illustrator 19.0.0, SVG Export Plug-In . SVG Version: 6.00 Build 0)  -->
<svg xmlns="http://www.w3.org/2000/svg" xmlns:xlink="http://www.w3.org/1999/xlink" version="1.1" id="Capa_1" x="0px" y="0px" viewBox="0 0 391.758 391.758" style="enable-background:new 0 0 391.758 391.758;" xml:space="preserve" width="25px" height="25px">
<g>
	<path d="M117.198,348.015c0.6,0.6,1.383,0.894,2.167,0.894c0.777,0,1.561-0.294,2.161-0.894c1.194-1.194,1.194-3.134,0-4.328   l-73.455-73.454c-1.194-1.194-3.134-1.194-4.328,0s-1.194,3.134,0,4.328L117.198,348.015z M68.228,348.015   c0.6,0.6,1.383,0.894,2.167,0.894c0.777,0,1.561-0.294,2.161-0.894c1.194-1.194,1.194-3.134,0-4.328l-24.485-24.484   c-1.194-1.194-3.134-1.194-4.328,0s-1.194,3.134,0,4.328L68.228,348.015z M92.713,348.015c0.6,0.6,1.383,0.894,2.167,0.894   c0.777,0,1.561-0.294,2.161-0.894c1.194-1.194,1.194-3.134,0-4.328l-48.97-48.97c-1.194-1.194-3.134-1.194-4.328,0   s-1.194,3.134,0,4.328L92.713,348.015z M281.576,189.758h61.212c3.379,0,6.121-2.736,6.121-6.121v-12.242   c0-3.379-2.742-6.121-6.121-6.121h-61.212c-3.385,0-6.121,2.742-6.121,6.121v12.242   C275.455,187.021,278.191,189.758,281.576,189.758L281.576,189.758z M324.424,97.939c-3.379,0-6.121-2.742-6.121-6.121   c0-3.373,2.742-6.121,6.121-6.121c3.373,0,6.121,2.748,6.121,6.121C330.546,95.197,327.797,97.939,324.424,97.939L324.424,97.939z    M324.424,79.576c-6.764,0-12.242,5.485-12.242,12.242c0,6.764,5.478,12.242,12.242,12.242c6.758,0,12.242-5.478,12.242-12.242   C336.667,85.06,331.182,79.576,324.424,79.576L324.424,79.576z M263.212,79.576c-6.764,0-12.242,5.485-12.242,12.242   c0,6.764,5.478,12.242,12.242,12.242c6.758,0,12.242-5.478,12.242-12.242C275.455,85.06,269.97,79.576,263.212,79.576   L263.212,79.576z M226.486,79.576c-6.764,0-12.242,5.485-12.242,12.242c0,6.764,5.479,12.242,12.242,12.242   c6.758,0,12.242-5.478,12.242-12.242C238.728,85.06,233.243,79.576,226.486,79.576L226.486,79.576z M189.758,79.576   c-6.764,0-12.242,5.485-12.242,12.242c0,6.764,5.478,12.242,12.242,12.242c6.758,0,12.242-5.478,12.242-12.242   C202.001,85.06,196.516,79.576,189.758,79.576L189.758,79.576z M153.031,79.576c-6.764,0-12.242,5.485-12.242,12.242   c0,6.764,5.478,12.242,12.242,12.242c6.758,0,12.242-5.478,12.242-12.242C165.273,85.06,159.788,79.576,153.031,79.576   L153.031,79.576z M97.94,79.576h12.242v24.485H97.94V79.576z M91.819,110.182h24.485V73.455H91.819V110.182z M61.213,79.576h12.242   v24.485H61.213V79.576z M55.092,110.182h24.485V73.455H55.092V110.182z M361.152,128.545H30.607V61.212   c0-3.373,2.742-6.121,6.121-6.121H355.03c3.373,0,6.121,2.748,6.121,6.121v67.333H361.152z M355.03,48.97H36.728   c-6.764,0-12.242,5.485-12.242,12.242v73.455h342.788V61.212C367.273,54.454,361.788,48.97,355.03,48.97L355.03,48.97z    M30.607,153.03h330.545v202c0,3.379-2.748,6.121-6.121,6.121H36.728c-3.379,0-6.121-2.742-6.121-6.121V153.03z M24.486,355.03   c0,6.733,5.509,12.242,12.242,12.242H355.03c6.727,0,12.242-5.509,12.242-12.242V146.909H24.486V355.03z M379.516,361.152   c0,10.131-8.239,18.364-18.364,18.364H30.607c-10.131,0-18.364-8.233-18.364-18.364V55.091c0-10.124,8.233-18.364,18.364-18.364   h61.212h208.121h61.212c10.124,0,18.364,8.239,18.364,18.364V361.152z M195.88,12.242c19.251,0,38.062,5.185,55.024,12.242H140.855   C157.824,17.427,176.629,12.242,195.88,12.242L195.88,12.242z M361.152,24.485h-82.079C253.823,10.779,225.635,0,195.88,0   s-57.943,10.786-83.2,24.485H30.607c-16.833,0-30.606,13.773-30.606,30.606v306.061c0,16.833,13.773,30.606,30.606,30.606h330.545   c16.833,0,30.606-13.773,30.606-30.606V55.091C391.758,38.258,377.985,24.485,361.152,24.485L361.152,24.485z" fill="#1c79c0"/>
</g>
<g>
</g>
<g>
</g>
<g>
</g>
<g>
</g>
<g>
</g>
<g>
</g>
<g>
</g>
<g>
</g>
<g>
</g>
<g>
</g>
<g>
</g>
<g>
</g>
<g>
</g>
<g>
</g>
<g>
</g>
</svg>
